<svg xmlns="http://www.w3.org/2000/svg" width="256" height="256" viewBox="0 0 256 256" xml:space="preserve"><g style="stroke:none;stroke-width:0;stroke-dasharray:none;stroke-linecap:butt;stroke-linejoin:miter;stroke-miterlimit:10;fill:none;fill-rule:nonzero;opacity:1"><path d="M76.387 89H13.613a8.84 8.84 0 0 1-8.842-8.842V17.384a8.84 8.84 0 0 1 8.842-8.842h62.774a8.84 8.84 0 0 1 8.842 8.842v62.774A8.84 8.84 0 0 1 76.387 89" style="stroke:none;stroke-width:1;stroke-dasharray:none;stroke-linecap:butt;stroke-linejoin:miter;stroke-miterlimit:10;fill:#eeeaf1;fill-rule:nonzero;opacity:1" transform="translate(1.407 1.407)scale(2.81)"/><path d="M85.229 24.996H4.771v-7.613a8.84 8.84 0 0 1 8.842-8.842h62.774a8.84 8.84 0 0 1 8.842 8.842z" style="stroke:none;stroke-width:1;stroke-dasharray:none;stroke-linecap:butt;stroke-linejoin:miter;stroke-miterlimit:10;fill:#fe5578;fill-rule:nonzero;opacity:1" transform="translate(1.407 1.407)scale(2.81)"/><path d="M76.387 90H13.613c-5.427 0-9.842-4.415-9.842-9.842V17.384c0-5.427 4.415-9.842 9.842-9.842h62.774c5.428 0 9.843 4.415 9.843 9.842v62.774C86.229 85.585 81.814 90 76.387 90M13.613 9.542c-4.324 0-7.842 3.518-7.842 7.842v62.774c0 4.324 3.518 7.842 7.842 7.842h62.774c4.324 0 7.843-3.518 7.843-7.842V17.384c0-4.324-3.519-7.842-7.843-7.842z" style="stroke:none;stroke-width:1;stroke-dasharray:none;stroke-linecap:butt;stroke-linejoin:miter;stroke-miterlimit:10;fill:#000;fill-rule:nonzero;opacity:1" transform="translate(1.407 1.407)scale(2.81)"/><path d="M85.229 25.997H4.771a1 1 0 0 1-1-1v-7.613c0-5.427 4.415-9.842 9.842-9.842h62.774c5.428 0 9.843 4.415 9.843 9.842v7.613c-.001.552-.448 1-1.001 1m-79.458-2h78.458v-6.613c0-4.324-3.519-7.842-7.843-7.842H13.613c-4.324 0-7.842 3.518-7.842 7.842z" style="stroke:none;stroke-width:1;stroke-dasharray:none;stroke-linecap:butt;stroke-linejoin:miter;stroke-miterlimit:10;fill:#000;fill-rule:nonzero;opacity:1" transform="translate(1.407 1.407)scale(2.81)"/><path d="M24.935 16.769h-.848a4.375 4.375 0 0 1-4.375-4.375V5.375A4.376 4.376 0 0 1 24.088 1h.848a4.375 4.375 0 0 1 4.375 4.375v7.018a4.376 4.376 0 0 1-4.376 4.376m40.977 0h-.848a4.375 4.375 0 0 1-4.375-4.375V5.375A4.376 4.376 0 0 1 65.065 1h.848a4.375 4.375 0 0 1 4.375 4.375v7.018a4.376 4.376 0 0 1-4.376 4.376" style="stroke:none;stroke-width:1;stroke-dasharray:none;stroke-linecap:butt;stroke-linejoin:miter;stroke-miterlimit:10;fill:#eeeaf1;fill-rule:nonzero;opacity:1" transform="translate(1.407 1.407)scale(2.81)"/><path d="M24.936 17.769h-.848a5.38 5.38 0 0 1-5.375-5.375V5.375A5.38 5.38 0 0 1 24.088 0h.848a5.38 5.38 0 0 1 5.375 5.375v7.018a5.38 5.38 0 0 1-5.375 5.376M24.088 2a3.38 3.38 0 0 0-3.375 3.375v7.018a3.38 3.38 0 0 0 3.375 3.375h.848a3.38 3.38 0 0 0 3.375-3.375V5.375A3.38 3.38 0 0 0 24.936 2zm41.824 15.769h-.848a5.38 5.38 0 0 1-5.375-5.375V5.375A5.38 5.38 0 0 1 65.064 0h.848a5.38 5.38 0 0 1 5.376 5.375v7.018a5.383 5.383 0 0 1-5.376 5.376M65.064 2a3.38 3.38 0 0 0-3.375 3.375v7.018a3.38 3.38 0 0 0 3.375 3.375h.848a3.38 3.38 0 0 0 3.376-3.375V5.375A3.38 3.38 0 0 0 65.912 2z" style="stroke:none;stroke-width:1;stroke-dasharray:none;stroke-linecap:butt;stroke-linejoin:miter;stroke-miterlimit:10;fill:#000;fill-rule:nonzero;opacity:1" transform="translate(1.407 1.407)scale(2.81)"/><path d="M46.079 75.388a1.526 1.526 0 0 1-2.158 0L27.639 59.106c-2.506-2.505-3.699-5.974-3.234-9.571a11.16 11.16 0 0 1 2.208-5.348c2.281-2.972 5.717-4.598 9.39-4.499 2.987.081 5.805 1.408 7.918 3.52a1.526 1.526 0 0 0 2.158 0l.025-.025c2.084-2.084 4.859-3.391 7.804-3.493a11.3 11.3 0 0 1 8.452 3.326 11.3 11.3 0 0 1 3.333 8.045 11.3 11.3 0 0 1-3.333 8.045z" style="stroke:none;stroke-width:1;stroke-dasharray:none;stroke-linecap:butt;stroke-linejoin:miter;stroke-miterlimit:10;fill:#fe5578;fill-rule:nonzero;opacity:1" transform="translate(1.407 1.407)scale(2.81)"/><path d="M45 76.835a2.5 2.5 0 0 1-1.787-.74L26.932 59.813c-2.738-2.736-4.02-6.529-3.519-10.406a12.15 12.15 0 0 1 2.406-5.829c2.469-3.216 6.179-5.009 10.21-4.889 3.171.086 6.225 1.44 8.598 3.813a.54.54 0 0 0 .744 0c2.356-2.357 5.366-3.701 8.502-3.81 3.481-.117 6.74 1.165 9.194 3.618 2.338 2.337 3.625 5.445 3.625 8.752s-1.287 6.415-3.625 8.753l-16.281 16.28a2.5 2.5 0 0 1-1.786.74m-9.316-36.151c-3.26 0-6.264 1.488-8.277 4.112a10.15 10.15 0 0 0-2.01 4.867c-.421 3.258.654 6.441 2.949 8.736l16.282 16.282a.54.54 0 0 0 .744 0L61.654 58.4c1.96-1.96 3.039-4.566 3.039-7.339s-1.079-5.378-3.039-7.338c-2.058-2.057-4.803-3.129-7.711-3.033-2.627.091-5.16 1.228-7.132 3.2-1.008 1.008-2.613 1.01-3.598.025-2.01-2.009-4.58-3.155-7.238-3.228z" style="stroke:none;stroke-width:1;stroke-dasharray:none;stroke-linecap:butt;stroke-linejoin:miter;stroke-miterlimit:10;fill:#000;fill-rule:nonzero;opacity:1" transform="translate(1.407 1.407)scale(2.81)"/></g></svg>
